:FULLY-SPECIFIED
:DEGREES
2370
root 0.864187 15.5691 -2.53731 4904.9 -82.5673 -4903.75
lowerback 5.21548 0.897389 -9.7124
upperback -1.36637 0.496587 -0.247445
thorax -4.46271 0.495682 5.15314
lowerneck -16.757 1.50318 1.3788
upperneck 21.5222 2.29366 -3.16571
head 9.63438 0.732163 -1.04311
rclavicle 1.98785e-014 5.96354e-016
rhumerus -39.8553 -23.5398 -72.7663
rradius 12.0959
rwrist 28.1878
rhand -29.0024 -17.2729
rfingers 7.12502
rthumb -2.35402 -47.2397
lclavicle 1.98785e-014 5.96354e-016
lhumerus -17.7781 -12.2217 91.0529
lradius 36.0512
lwrist 12.0862
lhand -32.8814 15.75
lfingers 7.12502
lthumb -6.09968 45.6422
rfemur -31.9786 3.18843 16.2846
rtibia 43.8866
rfoot -16.6556 -22.0742
rtoes -11.5694
lfemur 1.19884 -6.78214 -32.0572
ltibia 16.854
lfoot -14.3327 7.72977
ltoes -8.54863
2371
root 0.890328 15.5772 -2.54078 4905.9 -82.7131 -4904.52
lowerback 5.12654 0.918694 -9.67951
upperback -1.3877 0.536757 -0.240292
thorax -4.44074 0.514653 5.1388
lowerneck -16.809 1.42349 1.32821
upperneck 21.4365 2.18827 -3.12604
head 9.61003 0.685912 -1.03377
rclavicle -5.1684e-015 2.3556e-014
rhumerus -39.4373 -24.032 -72.7227
rradius 11.9665
rwrist 28.7201
rhand -29.1549 -17.0044
rfingers 7.12502
rthumb -2.50131 -46.9695
lclavicle -5.1684e-015 2.3556e-014
lhumerus -17.7215 -12.4759 91.0841
lradius 36.3208
lwrist 12.1677
lhand -32.9597 15.6664
lfingers 7.12502
lthumb -6.17535 45.5564
rfemur -32.078 3.94236 16.1327
rtibia 41.1279
rfoot -16.58 -21.4088
rtoes -12.2769
lfemur 2.04243 -6.6634 -32.015
ltibia 15.7592
lfoot -14.0994 7.37535
ltoes -9.12355
2372
root 0.914611 15.586 -2.54492 4908.13 -82.8287 -4906.5
lowerback 5.06507 0.90539 -9.78678
upperback -1.43654 0.51555 -0.239864
thorax -4.45605 0.509335 5.2016
lowerneck -16.8757 1.36666 1.29185
upperneck 21.3695 2.12947 -3.16389
head 9.59753 0.652774 -1.04778
rclavicle 0 1.39149e-015
rhumerus -38.7033 -23.3542 -73.606
rradius 12.1753
rwrist 27.5502
rhand -28.9901 -17.7623
rfingers 7.12502
rthumb -2.34213 -47.7292
lclavicle 0 1.39149e-015
lhumerus -17.7591 -12.5768 91.1621
lradius 36.6322
lwrist 12.3281
lhand -32.861 15.6405
lfingers 7.12502
lthumb -6.08003 45.5332
rfemur -32.1044 4.63678 15.7589
rtibia 38.3438
rfoot -16.5609 -20.5882
rtoes -13.0222
lfemur 2.94644 -6.65124 -32.1014
ltibia 14.5453
lfoot -13.8258 6.98932
ltoes -9.5736
2373
root 0.938558 15.5966 -2.54892 4909.95 -82.9521 -4908.05
lowerback 4.94856 0.906532 -9.783
upperback -1.47129 0.52716 -0.266044
thorax -4.42817 0.514296 5.17117
lowerneck -16.8989 1.29773 1.2946
upperneck 21.2525 2.03685 -3.17693
head 9.55846 0.611379 -1.06386
rclavicle -9.93923e-015 -4.96962e-015
rhumerus -38.0479 -23.1537 -74.2128
rradius 12.2907
rwrist 26.9251
rhand -29.0056 -17.8664
rfingers 7.12502
rthumb -2.35713 -47.8331
lclavicle -9.93923e-015 -4.96962e-015
lhumerus -17.8236 -12.8314 91.2164
lradius 36.8618
lwrist 12.39
lhand -33.0226 15.6332
lfingers 7.12502
lthumb -6.23606 45.5214
rfemur -32.1127 5.35838 15.3945
rtibia 35.5169
rfoot -16.6621 -19.7357
rtoes -13.3191
lfemur 3.88541 -6.49325 -32.1029
ltibia 13.2318
lfoot -13.3686 6.51498
ltoes -9.9958
2374
root 0.961137 15.6048 -2.5533 4911.97 -83.0675 -4909.78
lowerback 4.82458 0.895871 -9.79655
upperback -1.52687 0.522228 -0.278361
thorax -4.41585 0.513265 5.16659
lowerneck -16.8724 1.23899 1.25553
upperneck 21.1077 1.96432 -3.16959
head 9.50039 0.578814 -1.06312
rclavicle 4.37326e-015 -2.98177e-016
rhumerus -37.638 -23.521 -74.2628
rradius 12.1651
rwrist 28.0941
rhand -29.4606 -17.4868
rfingers 7.12502
rthumb -2.7965 -47.4482
lclavicle 4.37326e-015 -2.98177e-016
lhumerus -17.9627 -12.8037 91.3123
lradius 37.0627
lwrist 12.3405
lhand -32.9021 15.7085
lfingers 7.12502
lthumb -6.11971 45.6001
rfemur -32.1086 6.42378 14.9042
rtibia 32.7591
rfoot -16.837 -19.4392
rtoes -13.8882
lfemur 4.92451 -6.49258 -32.1451
ltibia 11.717
lfoot -12.9049 6.23028
ltoes -10.6932
2375
root 0.982237 15.6146 -2.55823 4913.73 -83.2018 -4911.2
lowerback 4.61399 0.893845 -9.74012
upperback -1.57381 0.544405 -0.28443
thorax -4.34825 0.521102 5.12745
lowerneck -16.9397 1.19073 1.24927
upperneck 21.019 1.91076 -3.21328
head 9.48086 0.550417 -1.08325
rclavicle -5.96354e-015 -2.38542e-015
rhumerus -36.9083 -23.075 -74.9391
rradius 12.2352
rwrist 27.6707
rhand -29.5561 -17.2961
rfingers 7.12502
rthumb -2.88874 -47.2563
lclavicle -5.96354e-015 -2.38542e-015
lhumerus -18.1009 -12.8621 91.4188
lradius 37.1661
lwrist 12.2783
lhand -32.8211 15.6547
lfingers 7.12502
lthumb -6.04146 45.5486
rfemur -32.1593 7.39734 14.4383
rtibia 30.1242
rfoot -16.8922 -19.2744
rtoes -14.8476
lfemur 6.00811 -6.46051 -32.1162
ltibia 9.99906
lfoot -12.2462 5.86766
ltoes -11.1064
